HIERARCHY
ROOT Hips
{
	OFFSET 0.000000 0.000000 0.000000
	CHANNELS 6 Xposition Yposition Zposition Xrotation Yrotation Zrotation
	JOINT LeftUpLeg_virtual
	{
		OFFSET 0.000000 0.000000 0.000000
		CHANNELS 3 Xrotation Yrotation Zrotation
		JOINT LeftUpLeg
		{
			OFFSET 15.427100 -6.655098 0.678600
			CHANNELS 3 Xrotation Yrotation Zrotation
			JOINT LeftLeg
			{
				OFFSET 4.081073 -39.591068 13.024000
				CHANNELS 3 Xrotation Yrotation Zrotation
				JOINT LeftFoot
				{
					OFFSET -4.081074 -37.707932 -15.979700
					CHANNELS 3 Xrotation Yrotation Zrotation
					JOINT LeftToeBase
					{
						OFFSET 5.346399 -15.068900 20.645000
						CHANNELS 3 Xrotation Yrotation Zrotation
						JOINT LeftToe_End
						{
							OFFSET 2.754700 0.931300 11.300900
							CHANNELS 3 Xrotation Yrotation Zrotation
							End Site
							{
								OFFSET 0 0 0
							}
						}
					}
				}
			}
		}
	}
	JOINT RightUpLeg_virtual
	{
		OFFSET 0.000000 0.000000 0.000000
		CHANNELS 3 Xrotation Yrotation Zrotation
		JOINT RightUpLeg
		{
			OFFSET -15.569500 -6.655098 0.678600
			CHANNELS 3 Xrotation Yrotation Zrotation
			JOINT RightLeg
			{
				OFFSET -4.081825 -39.591045 13.023800
				CHANNELS 3 Xrotation Yrotation Zrotation
				JOINT RightFoot
				{
					OFFSET 4.081824 -37.707954 -15.979600
					CHANNELS 3 Xrotation Yrotation Zrotation
					JOINT RightToeBase
					{
						OFFSET -5.346400 -15.068900 20.645000
						CHANNELS 3 Xrotation Yrotation Zrotation
						JOINT RightToe_End
						{
							OFFSET -2.754700 0.931300 11.300900
							CHANNELS 3 Xrotation Yrotation Zrotation
							End Site
							{
								OFFSET 0 0 0
							}
						}
					}
				}
			}
		}
	}
	JOINT Spine_virtual
	{
		OFFSET 0.000000 0.000000 0.000000
		CHANNELS 3 Xrotation Yrotation Zrotation
		JOINT Spine
		{
			OFFSET -0.279200 12.230698 -2.892100
			CHANNELS 3 Xrotation Yrotation Zrotation
			JOINT Spine1
			{
				OFFSET -0.232667 10.192268 -1.242267
				CHANNELS 3 Xrotation Yrotation Zrotation
				JOINT Spine1_split
				{
					OFFSET -0.232667 10.192268 -1.242267
					CHANNELS 3 Xrotation Yrotation Zrotation
					JOINT Spine2
					{
						OFFSET -0.232667 10.192268 -1.242267
						CHANNELS 3 Xrotation Yrotation Zrotation
						JOINT Neck_virtual
						{
							OFFSET 0.000000 0.000000 0.000000
							CHANNELS 3 Xrotation Yrotation Zrotation
							JOINT Neck
							{
								OFFSET -0.418800 17.814194 8.416900
								CHANNELS 3 Xrotation Yrotation Zrotation
								JOINT Head
								{
									OFFSET 0.000000 7.031097 3.806800
									CHANNELS 3 Xrotation Yrotation Zrotation
									JOINT HeadTop_End
									{
										OFFSET 0.000000 24.646606 12.978600
										CHANNELS 3 Xrotation Yrotation Zrotation
										End Site
										{
											OFFSET 0 0 0
										}
									}
								}
							}
						}
						JOINT LeftShoulder_virtual
						{
							OFFSET 0.000000 0.000000 0.000000
							CHANNELS 3 Xrotation Yrotation Zrotation
							JOINT LeftShoulder
							{
								OFFSET 8.476499 7.247704 -3.868750
								CHANNELS 3 Xrotation Yrotation Zrotation
								JOINT LeftShoulder_split
								{
									OFFSET 8.476499 7.247704 -3.868750
									CHANNELS 3 Xrotation Yrotation Zrotation
									JOINT LeftArm
									{
										OFFSET 9.308998 -2.777710 0.208600
										CHANNELS 3 Xrotation Yrotation Zrotation
										JOINT LeftForeArm
										{
											OFFSET 29.972298 0.000000 0.000000
											CHANNELS 3 Xrotation Yrotation Zrotation
											JOINT LeftHand
											{
												OFFSET 26.026505 0.000000 0.000000
												CHANNELS 3 Xrotation Yrotation Zrotation
												End Site
												{
													OFFSET 0 0 0
												}
											}
										}
									}
								}
							}
						}
						JOINT RightShoulder_virtual
						{
							OFFSET 0.000000 0.000000 0.000000
							CHANNELS 3 Xrotation Yrotation Zrotation
							JOINT RightShoulder
							{
								OFFSET -7.570500 7.247704 -3.868750
								CHANNELS 3 Xrotation Yrotation Zrotation
								JOINT RightShoulder_split
								{
									OFFSET -7.570500 7.247704 -3.868750
									CHANNELS 3 Xrotation Yrotation Zrotation
									JOINT RightArm
									{
										OFFSET -9.308998 -2.777710 0.208500
										CHANNELS 3 Xrotation Yrotation Zrotation
										JOINT RightForeArm
										{
											OFFSET -29.972300 0.000000 0.000000
											CHANNELS 3 Xrotation Yrotation Zrotation
											JOINT RightHand
											{
												OFFSET -26.026505 0.000000 0.000000
												CHANNELS 3 Xrotation Yrotation Zrotation
												End Site
												{
													OFFSET 0 0 0
												}
											}
										}
									}
								}
							}
						}
					}
				}
			}
		}
	}
}
MOTION
Frames: 8
Frame Time: 0.03333333
0.288769 78.878181 -0.156937 0.000000 0.000000 0.000000 3.037454 -58.355039 6.232857 -34.680357 8.733502 27.677052 40.314007 -8.737502 -10.519078 -7.470705 -1.705497 -10.812206 -0.367831 1.237928 0.746178 0.000000 0.000000 0.000000 3.037454 -58.355039 6.232857 -31.022736 -7.193261 -29.202324 46.886161 5.280981 -6.185088 -19.296282 0.939355 23.039620 -0.364949 -0.996771 -0.741409 0.000000 0.000000 0.000000 3.037454 -58.355039 6.232857 11.190416 0.276957 -2.458403 8.434578 0.027699 -5.592318 0.000000 0.000000 0.000000 0.000000 0.000000 0.000000 8.457047 0.027885 -5.591872 -21.555736 25.063376 12.062603 -0.294015 25.465834 -3.208973 0.000000 0.000000 0.000000 8.457047 0.027885 -5.591872 -6.221668 -11.503793 -4.023834 0.000000 0.000000 0.000000 -23.061668 9.569076 -36.639730 0.046289 -43.170825 -0.011028 0.000000 0.000000 0.000000 8.457047 0.027885 -5.591872 -5.488244 10.658251 2.466553 0.000000 0.000000 0.000000 -41.473165 -26.756175 30.079480 -155.046346 68.136068 156.693351 0.000000 0.000000 0.000000 
0.333350 78.888489 -0.019257 0.000000 0.000000 0.000000 3.082689 -58.296088 6.253424 -34.733011 8.749249 27.582080 40.400893 -8.762231 -10.537205 -7.551309 -1.719123 -10.675157 -0.365072 1.237978 0.752467 0.000000 0.000000 0.000000 3.082689 -58.296088 6.253424 -30.937560 -7.198153 -29.308687 46.738141 5.274313 -6.167443 -19.239859 0.914619 23.170998 -0.367434 -0.996829 -0.735819 0.000000 0.000000 0.000000 3.082689 -58.296088 6.253424 11.190425 0.278666 -2.454269 8.427925 0.021787 -5.590522 0.000000 0.000000 0.000000 0.000000 0.000000 0.000000 8.450534 0.024361 -5.590740 -21.522819 24.948441 12.125784 -0.210774 25.320596 -3.422932 0.000000 0.000000 0.000000 8.450534 0.024361 -5.590740 -6.234563 -11.512565 -4.088062 0.000000 0.000000 0.000000 -23.549883 9.594467 -36.642568 0.138466 -42.979290 0.153732 0.000000 0.000000 0.000000 8.450534 0.024361 -5.590740 -5.511181 10.663440 2.580818 0.000000 0.000000 0.000000 -40.669426 -26.535562 30.926598 -149.908090 67.121533 150.633634 0.000000 0.000000 0.000000 
0.465418 78.917786 0.365597 0.000000 0.000000 0.000000 3.125646 -58.237444 6.245039 -34.768371 8.807562 27.346720 40.653453 -8.766761 -10.588034 -7.819987 -1.743663 -10.334402 -0.357564 1.238052 0.769498 0.000000 0.000000 0.000000 3.125646 -58.237444 6.245039 -30.730712 -7.213782 -29.591245 46.327165 5.351052 -6.118791 -19.042366 0.876333 23.474462 -0.374037 -0.996739 -0.720820 0.000000 0.000000 0.000000 3.125646 -58.237444 6.245039 11.189826 0.272272 -2.441670 8.401986 -0.002268 -5.583283 0.000000 0.000000 0.000000 0.000000 0.000000 0.000000 8.425052 0.008623 -5.583561 -21.431260 24.624162 12.298790 0.012599 24.910345 -4.012509 0.000000 0.000000 0.000000 8.425052 0.008623 -5.583561 -6.271309 -11.537106 -4.271442 0.000000 0.000000 0.000000 -24.278452 9.356749 -36.480102 0.390042 -42.425549 0.606446 0.000000 0.000000 0.000000 8.425052 0.008623 -5.583561 -5.562388 10.685548 2.911040 0.000000 0.000000 0.000000 -40.035427 -26.442466 31.521265 -146.616527 66.782598 146.173725 0.000000 0.000000 0.000000 
0.672915 78.969460 0.962292 0.000000 0.000000 0.000000 3.179785 -58.181314 6.220977 -34.789654 8.904870 26.988644 41.036316 -8.746243 -10.662114 -8.233610 -1.782989 -9.822993 -0.348330 1.238281 0.790322 0.000000 0.000000 0.000000 3.179785 -58.181314 6.220977 -30.418162 -7.245845 -30.017209 45.668670 5.493502 -6.041465 -18.711925 0.831539 23.924812 -0.384043 -0.996654 -0.698160 0.000000 0.000000 0.000000 3.179785 -58.181314 6.220977 11.188973 0.260135 -2.422940 8.360037 -0.037551 -5.562300 0.000000 0.000000 0.000000 0.000000 0.000000 0.000000 8.383855 -0.015516 -5.569300 -21.297520 24.120547 12.555795 0.334048 24.270980 -4.891899 0.000000 0.000000 0.000000 8.383855 -0.015516 -5.569300 -6.329115 -11.574831 -4.560064 0.000000 0.000000 0.000000 -25.140955 8.962304 -36.205515 0.758575 -41.741222 1.278139 0.000000 0.000000 0.000000 8.383855 -0.015516 -5.569300 -5.644381 10.721010 3.438213 0.000000 0.000000 0.000000 -39.567761 -26.416482 31.881206 -150.463644 68.711887 148.189724 0.000000 0.000000 0.000000 
0.943517 79.047226 1.736221 0.000000 0.000000 0.000000 3.268088 -58.131617 6.201086 -34.792977 9.040876 26.523370 41.502804 -8.691656 -10.749651 -8.766147 -1.837143 -9.174593 -0.336709 1.238365 0.816590 0.000000 0.000000 0.000000 3.268088 -58.131617 6.201086 -30.020532 -7.302212 -30.552314 44.772829 5.685680 -5.936888 -18.254582 0.787448 24.500177 -0.397148 -0.996444 -0.676079 0.000000 0.000000 0.000000 3.268088 -58.131617 6.201086 11.187881 0.243407 -2.399968 8.303189 -0.083930 -5.533897 0.000000 0.000000 0.000000 0.000000 0.000000 0.000000 8.327975 -0.047482 -5.550300 -21.135276 23.468077 12.872206 0.708170 23.440484 -5.974289 0.000000 0.000000 0.000000 8.327975 -0.047482 -5.550300 -6.405216 -11.623183 -4.939977 0.000000 0.000000 0.000000 -26.020809 8.535676 -35.875657 1.208646 -41.176892 2.113462 0.000000 0.000000 0.000000 8.327975 -0.047482 -5.550300 -5.754561 10.768354 4.143348 0.000000 0.000000 0.000000 -39.267420 -26.376594 32.016700 -147.877461 69.610051 144.131690 0.000000 0.000000 0.000000 
1.266486 79.153778 2.652321 0.000000 0.000000 0.000000 3.394381 -58.129582 6.189603 -34.746450 9.215109 25.980373 42.016418 -8.572058 -10.842086 -9.402694 -1.902512 -8.438008 -0.327618 1.238400 0.837272 0.000000 0.000000 0.000000 3.394381 -58.129582 6.189603 -29.574545 -7.384897 -31.156263 43.654375 5.943712 -5.806825 -17.665745 0.758385 25.170763 -0.400678 -0.996372 -0.668070 0.000000 0.000000 0.000000 3.394381 -58.129582 6.189603 11.186366 0.221610 -2.374124 8.232581 -0.139608 -5.498639 0.000000 0.000000 0.000000 0.000000 0.000000 0.000000 8.258406 -0.085963 -5.526188 -20.954710 22.697883 13.223221 1.099881 22.457264 -7.176667 0.000000 0.000000 0.000000 8.258406 -0.085963 -5.526188 -6.496718 -11.679504 -5.397381 0.000000 0.000000 0.000000 -26.786614 8.241254 -35.539906 1.712378 -40.991923 3.084340 0.000000 0.000000 0.000000 8.258406 -0.085963 -5.526188 -5.890492 10.826103 5.007487 0.000000 0.000000 0.000000 -39.126947 -26.166263 31.964585 -150.989309 72.390798 145.352928 0.000000 0.000000 0.000000 
1.632783 79.293236 3.677380 0.000000 0.000000 0.000000 3.547247 -58.207378 6.178646 -34.618288 9.426548 25.383075 42.540163 -8.362289 -10.930831 -10.123752 -1.975952 -7.657935 -0.327596 1.238474 0.837256 0.000000 0.000000 0.000000 3.547247 -58.207378 6.178646 -29.104642 -7.500301 -31.788226 42.323680 6.271381 -5.651537 -16.938755 0.765054 25.874912 -0.404982 -0.996400 -0.658167 0.000000 0.000000 0.000000 3.547247 -58.207378 6.178646 11.185049 0.195360 -2.346168 8.149279 -0.202903 -5.457062 0.000000 0.000000 0.000000 0.000000 0.000000 0.000000 8.176198 -0.129853 -5.497446 -20.776729 21.839846 13.584083 1.480737 21.362579 -8.415508 0.000000 0.000000 0.000000 8.176198 -0.129853 -5.497446 -6.600836 -11.741070 -5.918238 0.000000 0.000000 0.000000 -27.321419 8.229821 -35.258707 2.251344 -41.429308 4.196362 0.000000 0.000000 0.000000 8.176198 -0.129853 -5.497446 -6.049833 10.892672 6.011720 0.000000 0.000000 0.000000 -39.124976 -25.648308 31.769740 -148.556464 74.513648 141.250948 0.000000 0.000000 0.000000 
2.028563 79.454437 4.767944 0.000000 0.000000 0.000000 3.719645 -58.362464 6.176378 -34.413010 9.668641 24.744686 43.049852 -8.068462 -11.009761 -10.897779 -2.053837 -6.871211 -0.327621 1.238459 0.837259 0.000000 0.000000 0.000000 3.719645 -58.362464 6.176378 -28.635297 -7.638646 -32.430049 40.835604 6.652737 -5.473523 -16.103008 0.807766 26.586224 -0.409368 -0.996475 -0.647717 0.000000 0.000000 0.000000 3.719645 -58.362464 6.176378 11.183525 0.163432 -2.329401 8.054377 -0.271993 -5.409736 0.000000 0.000000 0.000000 0.000000 0.000000 0.000000 8.082421 -0.178142 -5.464308 -20.480983 20.529590 13.771676 1.820330 20.245125 -9.619095 0.000000 0.000000 0.000000 8.082421 -0.178142 -5.464308 -6.714718 -11.805254 -6.488724 0.000000 0.000000 0.000000 -27.531903 8.612342 -35.115106 2.816221 -42.708364 5.486303 0.000000 0.000000 0.000000 8.082421 -0.178142 -5.464308 -6.230175 10.966545 7.137073 0.000000 0.000000 0.000000 -39.230851 -24.768539 31.463888 -144.612754 76.975795 135.608365 0.000000 0.000000 0.000000 
